<?xml version="1.0" encoding="UTF-8" standalone="no"?>
<!DOCTYPE svg PUBLIC "-//W3C//DTD SVG 1.1//EN"
 "http://www.w3.org/Graphics/SVG/1.1/DTD/svg11.dtd">
<!-- Generated by graphviz version 2.40.1 (20161225.0304)
 -->
<!-- Title: dependencies Pages: 1 -->
<svg width="730pt" height="211pt"
 viewBox="0.00 0.00 730.00 211.00" xmlns="http://www.w3.org/2000/svg" xmlns:xlink="http://www.w3.org/1999/xlink">
<g id="graph0" class="graph" transform="scale(1 1) rotate(0) translate(4 207)">
<title>dependencies</title>
<polygon fill="#ffffff" stroke="transparent" points="-4,4 -4,-207 726,-207 726,4 -4,4"/>
<text text-anchor="start" x="340.0091" y="-42.4" font-family="sans-serif" font-weight="bold" font-size="14.00" fill="#000000">Legend</text>
<polygon fill="#ffffb3" stroke="transparent" points="127,-10 127,-30 147,-30 147,-10 127,-10"/>
<text text-anchor="start" x="150.629" y="-15.4" font-family="sans-serif" font-size="14.00" fill="#000000"> &#160;Declarations</text>
<polygon fill="#8dd3c7" stroke="transparent" points="240,-10 240,-30 260,-30 260,-10 240,-10"/>
<text text-anchor="start" x="263.7251" y="-15.4" font-family="sans-serif" font-size="14.00" fill="#000000"> &#160;Module</text>
<polygon fill="#80b1d3" stroke="transparent" points="326,-10 326,-30 346,-30 346,-10 326,-10"/>
<text text-anchor="start" x="349.7812" y="-15.4" font-family="sans-serif" font-size="14.00" fill="#000000"> &#160;Bootstrap</text>
<polygon fill="#fdb462" stroke="transparent" points="423,-10 423,-30 443,-30 443,-10 423,-10"/>
<text text-anchor="start" x="446.6732" y="-15.4" font-family="sans-serif" font-size="14.00" fill="#000000"> &#160;Providers</text>
<polygon fill="#fb8072" stroke="transparent" points="519,-10 519,-30 539,-30 539,-10 519,-10"/>
<text text-anchor="start" x="542.7258" y="-15.4" font-family="sans-serif" font-size="14.00" fill="#000000"> &#160;Exports</text>
<g id="clust1" class="cluster">
<title>cluster_PlaceOrderPageModule</title>
<polygon fill="none" stroke="#000000" stroke-dasharray="1,5" points="8,-70 8,-195 714,-195 714,-70 8,-70"/>
</g>
<g id="clust2" class="cluster">
<title>cluster_PlaceOrderPageModule_declarations</title>
<polygon fill="none" stroke="#000000" points="584,-78 584,-130 706,-130 706,-78 584,-78"/>
</g>
<g id="clust4" class="cluster">
<title>cluster_PlaceOrderPageModule_imports</title>
<polygon fill="none" stroke="#000000" points="16,-78 16,-130 576,-130 576,-78 16,-78"/>
</g>
<!-- PlaceOrderPage -->
<g id="node1" class="node">
<title>PlaceOrderPage</title>
<polygon fill="#ffffb3" stroke="#000000" points="698.1713,-122 591.8287,-122 591.8287,-86 698.1713,-86 698.1713,-122"/>
<text text-anchor="middle" x="645" y="-99.8" font-family="Times,serif" font-size="14.00" fill="#000000">PlaceOrderPage</text>
</g>
<!-- PlaceOrderPageModule -->
<g id="node2" class="node">
<title>PlaceOrderPageModule</title>
<polygon fill="#8dd3c7" stroke="#000000" points="465.7213,-187 462.7213,-191 441.7213,-191 438.7213,-187 316.2787,-187 316.2787,-151 465.7213,-151 465.7213,-187"/>
<text text-anchor="middle" x="391" y="-164.8" font-family="Times,serif" font-size="14.00" fill="#000000">PlaceOrderPageModule</text>
</g>
<!-- PlaceOrderPage&#45;&gt;PlaceOrderPageModule -->
<g id="edge1" class="edge">
<title>PlaceOrderPage&#45;&gt;PlaceOrderPageModule</title>
<path fill="none" stroke="#000000" d="M645,-122.1061C645,-141.3391 645,-169 645,-169 645,-169 475.8346,-169 475.8346,-169"/>
<polygon fill="#000000" stroke="#000000" points="475.8346,-165.5001 465.8346,-169 475.8345,-172.5001 475.8346,-165.5001"/>
</g>
<!-- CommonModule -->
<g id="node3" class="node">
<title>CommonModule</title>
<polygon fill="#8dd3c7" stroke="#000000" points="567.6681,-122 564.6681,-126 543.6681,-126 540.6681,-122 456.3319,-122 456.3319,-86 567.6681,-86 567.6681,-122"/>
<text text-anchor="middle" x="512" y="-99.8" font-family="Times,serif" font-size="14.00" fill="#000000">CommonModule</text>
</g>
<!-- CommonModule&#45;&gt;PlaceOrderPageModule -->
<g id="edge2" class="edge">
<title>CommonModule&#45;&gt;PlaceOrderPageModule</title>
<path fill="none" stroke="#000000" d="M461.0134,-122.1061C461.0134,-122.1061 461.0134,-140.991 461.0134,-140.991"/>
<polygon fill="#000000" stroke="#000000" points="457.5134,-140.9909 461.0134,-150.991 464.5134,-140.991 457.5134,-140.9909"/>
</g>
<!-- FormsModule -->
<g id="node4" class="node">
<title>FormsModule</title>
<polygon fill="#8dd3c7" stroke="#000000" points="438.8288,-122 435.8288,-126 414.8288,-126 411.8288,-122 343.1712,-122 343.1712,-86 438.8288,-86 438.8288,-122"/>
<text text-anchor="middle" x="391" y="-99.8" font-family="Times,serif" font-size="14.00" fill="#000000">FormsModule</text>
</g>
<!-- FormsModule&#45;&gt;PlaceOrderPageModule -->
<g id="edge3" class="edge">
<title>FormsModule&#45;&gt;PlaceOrderPageModule</title>
<path fill="none" stroke="#000000" d="M391,-122.1061C391,-122.1061 391,-140.991 391,-140.991"/>
<polygon fill="#000000" stroke="#000000" points="387.5001,-140.9909 391,-150.991 394.5001,-140.991 387.5001,-140.9909"/>
</g>
<!-- IonicModule -->
<g id="node5" class="node">
<title>IonicModule</title>
<polygon fill="#8dd3c7" stroke="#000000" points="325.3162,-122 322.3162,-126 301.3162,-126 298.3162,-122 236.6838,-122 236.6838,-86 325.3162,-86 325.3162,-122"/>
<text text-anchor="middle" x="281" y="-99.8" font-family="Times,serif" font-size="14.00" fill="#000000">IonicModule</text>
</g>
<!-- IonicModule&#45;&gt;PlaceOrderPageModule -->
<g id="edge4" class="edge">
<title>IonicModule&#45;&gt;PlaceOrderPageModule</title>
<path fill="none" stroke="#000000" d="M320.6486,-122.1061C320.6486,-122.1061 320.6486,-140.991 320.6486,-140.991"/>
<polygon fill="#000000" stroke="#000000" points="317.1487,-140.9909 320.6486,-150.991 324.1487,-140.991 317.1487,-140.9909"/>
</g>
<!-- PlaceOrderPageRoutingModule -->
<g id="node6" class="node">
<title>PlaceOrderPageRoutingModule</title>
<polygon fill="#8dd3c7" stroke="#000000" points="218.3389,-122 215.3389,-126 194.3389,-126 191.3389,-122 23.6611,-122 23.6611,-86 218.3389,-86 218.3389,-122"/>
<text text-anchor="middle" x="121" y="-99.8" font-family="Times,serif" font-size="14.00" fill="#000000">PlaceOrderPageRoutingModule</text>
</g>
<!-- PlaceOrderPageRoutingModule&#45;&gt;PlaceOrderPageModule -->
<g id="edge5" class="edge">
<title>PlaceOrderPageRoutingModule&#45;&gt;PlaceOrderPageModule</title>
<path fill="none" stroke="#000000" d="M121,-122.1061C121,-141.3391 121,-169 121,-169 121,-169 306.1485,-169 306.1485,-169"/>
<polygon fill="#000000" stroke="#000000" points="306.1485,-172.5001 316.1485,-169 306.1485,-165.5001 306.1485,-172.5001"/>
</g>
</g>
</svg>
