<?xml version="1.0" encoding="UTF-8" standalone="no"?>
<!DOCTYPE svg PUBLIC "-//W3C//DTD SVG 1.1//EN"
 "http://www.w3.org/Graphics/SVG/1.1/DTD/svg11.dtd">
<!-- Generated by graphviz version 2.40.1 (20161225.0304)
 -->
<!-- Title: dependencies Pages: 1 -->
<svg width="735pt" height="211pt"
 viewBox="0.00 0.00 735.00 211.00" xmlns="http://www.w3.org/2000/svg" xmlns:xlink="http://www.w3.org/1999/xlink">
<g id="graph0" class="graph" transform="scale(1 1) rotate(0) translate(4 207)">
<title>dependencies</title>
<polygon fill="#ffffff" stroke="transparent" points="-4,4 -4,-207 731,-207 731,4 -4,4"/>
<text text-anchor="start" x="342.5091" y="-42.4" font-family="sans-serif" font-weight="bold" font-size="14.00" fill="#000000">Legend</text>
<polygon fill="#ffffb3" stroke="transparent" points="129.5,-10 129.5,-30 149.5,-30 149.5,-10 129.5,-10"/>
<text text-anchor="start" x="153.129" y="-15.4" font-family="sans-serif" font-size="14.00" fill="#000000"> &#160;Declarations</text>
<polygon fill="#8dd3c7" stroke="transparent" points="242.5,-10 242.5,-30 262.5,-30 262.5,-10 242.5,-10"/>
<text text-anchor="start" x="266.2251" y="-15.4" font-family="sans-serif" font-size="14.00" fill="#000000"> &#160;Module</text>
<polygon fill="#80b1d3" stroke="transparent" points="328.5,-10 328.5,-30 348.5,-30 348.5,-10 328.5,-10"/>
<text text-anchor="start" x="352.2812" y="-15.4" font-family="sans-serif" font-size="14.00" fill="#000000"> &#160;Bootstrap</text>
<polygon fill="#fdb462" stroke="transparent" points="425.5,-10 425.5,-30 445.5,-30 445.5,-10 425.5,-10"/>
<text text-anchor="start" x="449.1732" y="-15.4" font-family="sans-serif" font-size="14.00" fill="#000000"> &#160;Providers</text>
<polygon fill="#fb8072" stroke="transparent" points="521.5,-10 521.5,-30 541.5,-30 541.5,-10 521.5,-10"/>
<text text-anchor="start" x="545.2258" y="-15.4" font-family="sans-serif" font-size="14.00" fill="#000000"> &#160;Exports</text>
<g id="clust1" class="cluster">
<title>cluster_RestaurantsPageModule</title>
<polygon fill="none" stroke="#000000" stroke-dasharray="1,5" points="8,-70 8,-195 719,-195 719,-70 8,-70"/>
</g>
<g id="clust2" class="cluster">
<title>cluster_RestaurantsPageModule_declarations</title>
<polygon fill="none" stroke="#000000" points="587,-78 587,-130 711,-130 711,-78 587,-78"/>
</g>
<g id="clust4" class="cluster">
<title>cluster_RestaurantsPageModule_imports</title>
<polygon fill="none" stroke="#000000" points="16,-78 16,-130 579,-130 579,-78 16,-78"/>
</g>
<!-- RestaurantsPage -->
<g id="node1" class="node">
<title>RestaurantsPage</title>
<polygon fill="#ffffb3" stroke="#000000" points="703.0242,-122 594.9758,-122 594.9758,-86 703.0242,-86 703.0242,-122"/>
<text text-anchor="middle" x="649" y="-99.8" font-family="Times,serif" font-size="14.00" fill="#000000">RestaurantsPage</text>
</g>
<!-- RestaurantsPageModule -->
<g id="node2" class="node">
<title>RestaurantsPageModule</title>
<polygon fill="#8dd3c7" stroke="#000000" points="470.073,-187 467.073,-191 446.073,-191 443.073,-187 317.927,-187 317.927,-151 470.073,-151 470.073,-187"/>
<text text-anchor="middle" x="394" y="-164.8" font-family="Times,serif" font-size="14.00" fill="#000000">RestaurantsPageModule</text>
</g>
<!-- RestaurantsPage&#45;&gt;RestaurantsPageModule -->
<g id="edge1" class="edge">
<title>RestaurantsPage&#45;&gt;RestaurantsPageModule</title>
<path fill="none" stroke="#000000" d="M649,-122.1061C649,-141.3391 649,-169 649,-169 649,-169 480.163,-169 480.163,-169"/>
<polygon fill="#000000" stroke="#000000" points="480.163,-165.5001 470.163,-169 480.163,-172.5001 480.163,-165.5001"/>
</g>
<!-- CommonModule -->
<g id="node3" class="node">
<title>CommonModule</title>
<polygon fill="#8dd3c7" stroke="#000000" points="570.6681,-122 567.6681,-126 546.6681,-126 543.6681,-122 459.3319,-122 459.3319,-86 570.6681,-86 570.6681,-122"/>
<text text-anchor="middle" x="515" y="-99.8" font-family="Times,serif" font-size="14.00" fill="#000000">CommonModule</text>
</g>
<!-- CommonModule&#45;&gt;RestaurantsPageModule -->
<g id="edge2" class="edge">
<title>CommonModule&#45;&gt;RestaurantsPageModule</title>
<path fill="none" stroke="#000000" d="M464.6014,-122.1061C464.6014,-122.1061 464.6014,-140.991 464.6014,-140.991"/>
<polygon fill="#000000" stroke="#000000" points="461.1014,-140.9909 464.6014,-150.991 468.1014,-140.991 461.1014,-140.9909"/>
</g>
<!-- FormsModule -->
<g id="node4" class="node">
<title>FormsModule</title>
<polygon fill="#8dd3c7" stroke="#000000" points="441.8288,-122 438.8288,-126 417.8288,-126 414.8288,-122 346.1712,-122 346.1712,-86 441.8288,-86 441.8288,-122"/>
<text text-anchor="middle" x="394" y="-99.8" font-family="Times,serif" font-size="14.00" fill="#000000">FormsModule</text>
</g>
<!-- FormsModule&#45;&gt;RestaurantsPageModule -->
<g id="edge3" class="edge">
<title>FormsModule&#45;&gt;RestaurantsPageModule</title>
<path fill="none" stroke="#000000" d="M394,-122.1061C394,-122.1061 394,-140.991 394,-140.991"/>
<polygon fill="#000000" stroke="#000000" points="390.5001,-140.9909 394,-150.991 397.5001,-140.991 390.5001,-140.9909"/>
</g>
<!-- IonicModule -->
<g id="node5" class="node">
<title>IonicModule</title>
<polygon fill="#8dd3c7" stroke="#000000" points="328.3162,-122 325.3162,-126 304.3162,-126 301.3162,-122 239.6838,-122 239.6838,-86 328.3162,-86 328.3162,-122"/>
<text text-anchor="middle" x="284" y="-99.8" font-family="Times,serif" font-size="14.00" fill="#000000">IonicModule</text>
</g>
<!-- IonicModule&#45;&gt;RestaurantsPageModule -->
<g id="edge4" class="edge">
<title>IonicModule&#45;&gt;RestaurantsPageModule</title>
<path fill="none" stroke="#000000" d="M323.0607,-122.1061C323.0607,-122.1061 323.0607,-140.991 323.0607,-140.991"/>
<polygon fill="#000000" stroke="#000000" points="319.5607,-140.9909 323.0607,-150.991 326.5607,-140.991 319.5607,-140.9909"/>
</g>
<!-- RestaurantsPageRoutingModule -->
<g id="node6" class="node">
<title>RestaurantsPageRoutingModule</title>
<polygon fill="#8dd3c7" stroke="#000000" points="221.6909,-122 218.6909,-126 197.6909,-126 194.6909,-122 24.3091,-122 24.3091,-86 221.6909,-86 221.6909,-122"/>
<text text-anchor="middle" x="123" y="-99.8" font-family="Times,serif" font-size="14.00" fill="#000000">RestaurantsPageRoutingModule</text>
</g>
<!-- RestaurantsPageRoutingModule&#45;&gt;RestaurantsPageModule -->
<g id="edge5" class="edge">
<title>RestaurantsPageRoutingModule&#45;&gt;RestaurantsPageModule</title>
<path fill="none" stroke="#000000" d="M123,-122.1061C123,-141.3391 123,-169 123,-169 123,-169 307.7902,-169 307.7902,-169"/>
<polygon fill="#000000" stroke="#000000" points="307.7902,-172.5001 317.7902,-169 307.7902,-165.5001 307.7902,-172.5001"/>
</g>
</g>
</svg>
