<?xml version="1.0" encoding="UTF-8" standalone="no"?>
<!DOCTYPE svg PUBLIC "-//W3C//DTD SVG 1.1//EN"
 "http://www.w3.org/Graphics/SVG/1.1/DTD/svg11.dtd">
<!-- Generated by graphviz version 2.40.1 (20161225.0304)
 -->
<!-- Title: dependencies Pages: 1 -->
<svg width="681pt" height="211pt"
 viewBox="0.00 0.00 681.00 211.00" xmlns="http://www.w3.org/2000/svg" xmlns:xlink="http://www.w3.org/1999/xlink">
<g id="graph0" class="graph" transform="scale(1 1) rotate(0) translate(4 207)">
<title>dependencies</title>
<polygon fill="#ffffff" stroke="transparent" points="-4,4 -4,-207 677,-207 677,4 -4,4"/>
<text text-anchor="start" x="315.5091" y="-42.4" font-family="sans-serif" font-weight="bold" font-size="14.00" fill="#000000">Legend</text>
<polygon fill="#ffffb3" stroke="transparent" points="102.5,-10 102.5,-30 122.5,-30 122.5,-10 102.5,-10"/>
<text text-anchor="start" x="126.129" y="-15.4" font-family="sans-serif" font-size="14.00" fill="#000000"> &#160;Declarations</text>
<polygon fill="#8dd3c7" stroke="transparent" points="215.5,-10 215.5,-30 235.5,-30 235.5,-10 215.5,-10"/>
<text text-anchor="start" x="239.2251" y="-15.4" font-family="sans-serif" font-size="14.00" fill="#000000"> &#160;Module</text>
<polygon fill="#80b1d3" stroke="transparent" points="301.5,-10 301.5,-30 321.5,-30 321.5,-10 301.5,-10"/>
<text text-anchor="start" x="325.2812" y="-15.4" font-family="sans-serif" font-size="14.00" fill="#000000"> &#160;Bootstrap</text>
<polygon fill="#fdb462" stroke="transparent" points="398.5,-10 398.5,-30 418.5,-30 418.5,-10 398.5,-10"/>
<text text-anchor="start" x="422.1732" y="-15.4" font-family="sans-serif" font-size="14.00" fill="#000000"> &#160;Providers</text>
<polygon fill="#fb8072" stroke="transparent" points="494.5,-10 494.5,-30 514.5,-30 514.5,-10 494.5,-10"/>
<text text-anchor="start" x="518.2258" y="-15.4" font-family="sans-serif" font-size="14.00" fill="#000000"> &#160;Exports</text>
<g id="clust1" class="cluster">
<title>cluster_ProfilePageModule</title>
<polygon fill="none" stroke="#000000" stroke-dasharray="1,5" points="8,-70 8,-195 665,-195 665,-70 8,-70"/>
</g>
<g id="clust2" class="cluster">
<title>cluster_ProfilePageModule_declarations</title>
<polygon fill="none" stroke="#000000" points="559,-78 559,-130 657,-130 657,-78 559,-78"/>
</g>
<g id="clust4" class="cluster">
<title>cluster_ProfilePageModule_imports</title>
<polygon fill="none" stroke="#000000" points="16,-78 16,-130 551,-130 551,-78 16,-78"/>
</g>
<!-- ProfilePage -->
<g id="node1" class="node">
<title>ProfilePage</title>
<polygon fill="#ffffb3" stroke="#000000" points="648.812,-122 567.188,-122 567.188,-86 648.812,-86 648.812,-122"/>
<text text-anchor="middle" x="608" y="-99.8" font-family="Times,serif" font-size="14.00" fill="#000000">ProfilePage</text>
</g>
<!-- ProfilePageModule -->
<g id="node2" class="node">
<title>ProfilePageModule</title>
<polygon fill="#8dd3c7" stroke="#000000" points="428.3613,-187 425.3613,-191 404.3613,-191 401.3613,-187 303.6387,-187 303.6387,-151 428.3613,-151 428.3613,-187"/>
<text text-anchor="middle" x="366" y="-164.8" font-family="Times,serif" font-size="14.00" fill="#000000">ProfilePageModule</text>
</g>
<!-- ProfilePage&#45;&gt;ProfilePageModule -->
<g id="edge1" class="edge">
<title>ProfilePage&#45;&gt;ProfilePageModule</title>
<path fill="none" stroke="#000000" d="M608,-122.1061C608,-141.3391 608,-169 608,-169 608,-169 438.6357,-169 438.6357,-169"/>
<polygon fill="#000000" stroke="#000000" points="438.6358,-165.5001 428.6357,-169 438.6357,-172.5001 438.6358,-165.5001"/>
</g>
<!-- CommonModule -->
<g id="node3" class="node">
<title>CommonModule</title>
<polygon fill="#8dd3c7" stroke="#000000" points="542.6681,-122 539.6681,-126 518.6681,-126 515.6681,-122 431.3319,-122 431.3319,-86 542.6681,-86 542.6681,-122"/>
<text text-anchor="middle" x="487" y="-99.8" font-family="Times,serif" font-size="14.00" fill="#000000">CommonModule</text>
</g>
<!-- CommonModule&#45;&gt;ProfilePageModule -->
<g id="edge2" class="edge">
<title>CommonModule&#45;&gt;ProfilePageModule</title>
<path fill="none" stroke="#000000" d="M431.0641,-104C425.0416,-104 421.0474,-104 421.0474,-104 421.0474,-104 421.0474,-140.8939 421.0474,-140.8939"/>
<polygon fill="#000000" stroke="#000000" points="417.5474,-140.8938 421.0474,-150.8939 424.5474,-140.8939 417.5474,-140.8938"/>
</g>
<!-- FormsModule -->
<g id="node4" class="node">
<title>FormsModule</title>
<polygon fill="#8dd3c7" stroke="#000000" points="413.8288,-122 410.8288,-126 389.8288,-126 386.8288,-122 318.1712,-122 318.1712,-86 413.8288,-86 413.8288,-122"/>
<text text-anchor="middle" x="366" y="-99.8" font-family="Times,serif" font-size="14.00" fill="#000000">FormsModule</text>
</g>
<!-- FormsModule&#45;&gt;ProfilePageModule -->
<g id="edge3" class="edge">
<title>FormsModule&#45;&gt;ProfilePageModule</title>
<path fill="none" stroke="#000000" d="M366,-122.1061C366,-122.1061 366,-140.991 366,-140.991"/>
<polygon fill="#000000" stroke="#000000" points="362.5001,-140.9909 366,-150.991 369.5001,-140.991 362.5001,-140.9909"/>
</g>
<!-- IonicModule -->
<g id="node5" class="node">
<title>IonicModule</title>
<polygon fill="#8dd3c7" stroke="#000000" points="300.3162,-122 297.3162,-126 276.3162,-126 273.3162,-122 211.6838,-122 211.6838,-86 300.3162,-86 300.3162,-122"/>
<text text-anchor="middle" x="256" y="-99.8" font-family="Times,serif" font-size="14.00" fill="#000000">IonicModule</text>
</g>
<!-- IonicModule&#45;&gt;ProfilePageModule -->
<g id="edge4" class="edge">
<title>IonicModule&#45;&gt;ProfilePageModule</title>
<path fill="none" stroke="#000000" d="M300.3572,-104C306.6058,-104 310.9527,-104 310.9527,-104 310.9527,-104 310.9527,-140.8939 310.9527,-140.8939"/>
<polygon fill="#000000" stroke="#000000" points="307.4527,-140.8938 310.9527,-150.8939 314.4527,-140.8939 307.4527,-140.8938"/>
</g>
<!-- ProfilePageRoutingModule -->
<g id="node6" class="node">
<title>ProfilePageRoutingModule</title>
<polygon fill="#8dd3c7" stroke="#000000" points="193.979,-122 190.979,-126 169.979,-126 166.979,-122 24.021,-122 24.021,-86 193.979,-86 193.979,-122"/>
<text text-anchor="middle" x="109" y="-99.8" font-family="Times,serif" font-size="14.00" fill="#000000">ProfilePageRoutingModule</text>
</g>
<!-- ProfilePageRoutingModule&#45;&gt;ProfilePageModule -->
<g id="edge5" class="edge">
<title>ProfilePageRoutingModule&#45;&gt;ProfilePageModule</title>
<path fill="none" stroke="#000000" d="M109,-122.1061C109,-141.3391 109,-169 109,-169 109,-169 293.4594,-169 293.4594,-169"/>
<polygon fill="#000000" stroke="#000000" points="293.4594,-172.5001 303.4594,-169 293.4593,-165.5001 293.4594,-172.5001"/>
</g>
</g>
</svg>
