<?xml version="1.0" encoding="UTF-8" standalone="no"?>
<!DOCTYPE svg PUBLIC "-//W3C//DTD SVG 1.1//EN"
 "http://www.w3.org/Graphics/SVG/1.1/DTD/svg11.dtd">
<!-- Generated by graphviz version 2.40.1 (20161225.0304)
 -->
<!-- Title: dependencies Pages: 1 -->
<svg width="653pt" height="211pt"
 viewBox="0.00 0.00 653.00 211.00" xmlns="http://www.w3.org/2000/svg" xmlns:xlink="http://www.w3.org/1999/xlink">
<g id="graph0" class="graph" transform="scale(1 1) rotate(0) translate(4 207)">
<title>dependencies</title>
<polygon fill="#ffffff" stroke="transparent" points="-4,4 -4,-207 649,-207 649,4 -4,4"/>
<text text-anchor="start" x="301.5091" y="-42.4" font-family="sans-serif" font-weight="bold" font-size="14.00" fill="#000000">Legend</text>
<polygon fill="#ffffb3" stroke="transparent" points="88.5,-10 88.5,-30 108.5,-30 108.5,-10 88.5,-10"/>
<text text-anchor="start" x="112.129" y="-15.4" font-family="sans-serif" font-size="14.00" fill="#000000"> &#160;Declarations</text>
<polygon fill="#8dd3c7" stroke="transparent" points="201.5,-10 201.5,-30 221.5,-30 221.5,-10 201.5,-10"/>
<text text-anchor="start" x="225.2251" y="-15.4" font-family="sans-serif" font-size="14.00" fill="#000000"> &#160;Module</text>
<polygon fill="#80b1d3" stroke="transparent" points="287.5,-10 287.5,-30 307.5,-30 307.5,-10 287.5,-10"/>
<text text-anchor="start" x="311.2812" y="-15.4" font-family="sans-serif" font-size="14.00" fill="#000000"> &#160;Bootstrap</text>
<polygon fill="#fdb462" stroke="transparent" points="384.5,-10 384.5,-30 404.5,-30 404.5,-10 384.5,-10"/>
<text text-anchor="start" x="408.1732" y="-15.4" font-family="sans-serif" font-size="14.00" fill="#000000"> &#160;Providers</text>
<polygon fill="#fb8072" stroke="transparent" points="480.5,-10 480.5,-30 500.5,-30 500.5,-10 480.5,-10"/>
<text text-anchor="start" x="504.2258" y="-15.4" font-family="sans-serif" font-size="14.00" fill="#000000"> &#160;Exports</text>
<g id="clust1" class="cluster">
<title>cluster_CartPageModule</title>
<polygon fill="none" stroke="#000000" stroke-dasharray="1,5" points="8,-70 8,-195 637,-195 637,-70 8,-70"/>
</g>
<g id="clust2" class="cluster">
<title>cluster_CartPageModule_declarations</title>
<polygon fill="none" stroke="#000000" points="545,-78 545,-130 629,-130 629,-78 545,-78"/>
</g>
<g id="clust4" class="cluster">
<title>cluster_CartPageModule_imports</title>
<polygon fill="none" stroke="#000000" points="16,-78 16,-130 537,-130 537,-78 16,-78"/>
</g>
<!-- CartPage -->
<g id="node1" class="node">
<title>CartPage</title>
<polygon fill="#ffffb3" stroke="#000000" points="620.8149,-122 553.1851,-122 553.1851,-86 620.8149,-86 620.8149,-122"/>
<text text-anchor="middle" x="587" y="-99.8" font-family="Times,serif" font-size="14.00" fill="#000000">CartPage</text>
</g>
<!-- CartPageModule -->
<g id="node2" class="node">
<title>CartPageModule</title>
<polygon fill="#8dd3c7" stroke="#000000" points="407.3641,-187 404.3641,-191 383.3641,-191 380.3641,-187 296.6359,-187 296.6359,-151 407.3641,-151 407.3641,-187"/>
<text text-anchor="middle" x="352" y="-164.8" font-family="Times,serif" font-size="14.00" fill="#000000">CartPageModule</text>
</g>
<!-- CartPage&#45;&gt;CartPageModule -->
<g id="edge1" class="edge">
<title>CartPage&#45;&gt;CartPageModule</title>
<path fill="none" stroke="#000000" d="M587,-122.1061C587,-141.3391 587,-169 587,-169 587,-169 417.3941,-169 417.3941,-169"/>
<polygon fill="#000000" stroke="#000000" points="417.3942,-165.5001 407.3941,-169 417.3941,-172.5001 417.3942,-165.5001"/>
</g>
<!-- CommonModule -->
<g id="node3" class="node">
<title>CommonModule</title>
<polygon fill="#8dd3c7" stroke="#000000" points="528.6681,-122 525.6681,-126 504.6681,-126 501.6681,-122 417.3319,-122 417.3319,-86 528.6681,-86 528.6681,-122"/>
<text text-anchor="middle" x="473" y="-99.8" font-family="Times,serif" font-size="14.00" fill="#000000">CommonModule</text>
</g>
<!-- CommonModule&#45;&gt;CartPageModule -->
<g id="edge2" class="edge">
<title>CommonModule&#45;&gt;CartPageModule</title>
<path fill="none" stroke="#000000" d="M417.2695,-104C409.1955,-104 403.5481,-104 403.5481,-104 403.5481,-104 403.5481,-140.8939 403.5481,-140.8939"/>
<polygon fill="#000000" stroke="#000000" points="400.0481,-140.8938 403.5481,-150.8939 407.0481,-140.8939 400.0481,-140.8938"/>
</g>
<!-- FormsModule -->
<g id="node4" class="node">
<title>FormsModule</title>
<polygon fill="#8dd3c7" stroke="#000000" points="399.8288,-122 396.8288,-126 375.8288,-126 372.8288,-122 304.1712,-122 304.1712,-86 399.8288,-86 399.8288,-122"/>
<text text-anchor="middle" x="352" y="-99.8" font-family="Times,serif" font-size="14.00" fill="#000000">FormsModule</text>
</g>
<!-- FormsModule&#45;&gt;CartPageModule -->
<g id="edge3" class="edge">
<title>FormsModule&#45;&gt;CartPageModule</title>
<path fill="none" stroke="#000000" d="M352,-122.1061C352,-122.1061 352,-140.991 352,-140.991"/>
<polygon fill="#000000" stroke="#000000" points="348.5001,-140.9909 352,-150.991 355.5001,-140.991 348.5001,-140.9909"/>
</g>
<!-- IonicModule -->
<g id="node5" class="node">
<title>IonicModule</title>
<polygon fill="#8dd3c7" stroke="#000000" points="286.3162,-122 283.3162,-126 262.3162,-126 259.3162,-122 197.6838,-122 197.6838,-86 286.3162,-86 286.3162,-122"/>
<text text-anchor="middle" x="242" y="-99.8" font-family="Times,serif" font-size="14.00" fill="#000000">IonicModule</text>
</g>
<!-- IonicModule&#45;&gt;CartPageModule -->
<g id="edge4" class="edge">
<title>IonicModule&#45;&gt;CartPageModule</title>
<path fill="none" stroke="#000000" d="M286.3024,-104C294.4548,-104 300.452,-104 300.452,-104 300.452,-104 300.452,-140.8939 300.452,-140.8939"/>
<polygon fill="#000000" stroke="#000000" points="296.952,-140.8938 300.452,-150.8939 303.952,-140.8939 296.952,-140.8938"/>
</g>
<!-- CartPageRoutingModule -->
<g id="node6" class="node">
<title>CartPageRoutingModule</title>
<polygon fill="#8dd3c7" stroke="#000000" points="179.9818,-122 176.9818,-126 155.9818,-126 152.9818,-122 24.0182,-122 24.0182,-86 179.9818,-86 179.9818,-122"/>
<text text-anchor="middle" x="102" y="-99.8" font-family="Times,serif" font-size="14.00" fill="#000000">CartPageRoutingModule</text>
</g>
<!-- CartPageRoutingModule&#45;&gt;CartPageModule -->
<g id="edge5" class="edge">
<title>CartPageRoutingModule&#45;&gt;CartPageModule</title>
<path fill="none" stroke="#000000" d="M102,-122.1061C102,-141.3391 102,-169 102,-169 102,-169 286.5169,-169 286.5169,-169"/>
<polygon fill="#000000" stroke="#000000" points="286.5169,-172.5001 296.5169,-169 286.5169,-165.5001 286.5169,-172.5001"/>
</g>
</g>
</svg>
