<?xml version="1.0" encoding="UTF-8" standalone="no"?>
<!DOCTYPE svg PUBLIC "-//W3C//DTD SVG 1.1//EN"
 "http://www.w3.org/Graphics/SVG/1.1/DTD/svg11.dtd">
<!-- Generated by graphviz version 2.40.1 (20161225.0304)
 -->
<!-- Title: dependencies Pages: 1 -->
<svg width="1567pt" height="284pt"
 viewBox="0.00 0.00 1567.00 284.00" xmlns="http://www.w3.org/2000/svg" xmlns:xlink="http://www.w3.org/1999/xlink">
<g id="graph0" class="graph" transform="scale(1 1) rotate(0) translate(4 280)">
<title>dependencies</title>
<polygon fill="#ffffff" stroke="transparent" points="-4,4 -4,-280 1563,-280 1563,4 -4,4"/>
<text text-anchor="start" x="758.5091" y="-42.4" font-family="sans-serif" font-weight="bold" font-size="14.00" fill="#000000">Legend</text>
<polygon fill="#ffffb3" stroke="transparent" points="545.5,-10 545.5,-30 565.5,-30 565.5,-10 545.5,-10"/>
<text text-anchor="start" x="569.129" y="-15.4" font-family="sans-serif" font-size="14.00" fill="#000000"> &#160;Declarations</text>
<polygon fill="#8dd3c7" stroke="transparent" points="658.5,-10 658.5,-30 678.5,-30 678.5,-10 658.5,-10"/>
<text text-anchor="start" x="682.2251" y="-15.4" font-family="sans-serif" font-size="14.00" fill="#000000"> &#160;Module</text>
<polygon fill="#80b1d3" stroke="transparent" points="744.5,-10 744.5,-30 764.5,-30 764.5,-10 744.5,-10"/>
<text text-anchor="start" x="768.2812" y="-15.4" font-family="sans-serif" font-size="14.00" fill="#000000"> &#160;Bootstrap</text>
<polygon fill="#fdb462" stroke="transparent" points="841.5,-10 841.5,-30 861.5,-30 861.5,-10 841.5,-10"/>
<text text-anchor="start" x="865.1732" y="-15.4" font-family="sans-serif" font-size="14.00" fill="#000000"> &#160;Providers</text>
<polygon fill="#fb8072" stroke="transparent" points="937.5,-10 937.5,-30 957.5,-30 957.5,-10 937.5,-10"/>
<text text-anchor="start" x="961.2258" y="-15.4" font-family="sans-serif" font-size="14.00" fill="#000000"> &#160;Exports</text>
<g id="clust1" class="cluster">
<title>cluster_AppModule</title>
<polygon fill="none" stroke="#000000" stroke-dasharray="1,5" points="8,-70 8,-268 1551,-268 1551,-70 8,-70"/>
</g>
<g id="clust2" class="cluster">
<title>cluster_AppModule_declarations</title>
<polygon fill="none" stroke="#000000" points="1421,-78 1421,-130 1543,-130 1543,-78 1421,-78"/>
</g>
<g id="clust4" class="cluster">
<title>cluster_AppModule_imports</title>
<polygon fill="none" stroke="#000000" points="981,-78 981,-130 1413,-130 1413,-78 981,-78"/>
</g>
<g id="clust6" class="cluster">
<title>cluster_AppModule_bootstrap</title>
<polygon fill="none" stroke="#000000" points="922,-208 922,-260 1046,-260 1046,-208 922,-208"/>
</g>
<g id="clust7" class="cluster">
<title>cluster_AppModule_providers</title>
<polygon fill="none" stroke="#000000" points="16,-78 16,-130 973,-130 973,-78 16,-78"/>
</g>
<!-- AppComponent -->
<g id="node1" class="node">
<title>AppComponent</title>
<polygon fill="#ffffb3" stroke="#000000" points="1534.9399,-122 1429.0601,-122 1429.0601,-86 1534.9399,-86 1534.9399,-122"/>
<text text-anchor="middle" x="1482" y="-99.8" font-family="Times,serif" font-size="14.00" fill="#000000">AppComponent</text>
</g>
<!-- AppModule -->
<g id="node2" class="node">
<title>AppModule</title>
<polygon fill="#8dd3c7" stroke="#000000" points="1025.6571,-187 1022.6571,-191 1001.6571,-191 998.6571,-187 942.3429,-187 942.3429,-151 1025.6571,-151 1025.6571,-187"/>
<text text-anchor="middle" x="984" y="-164.8" font-family="Times,serif" font-size="14.00" fill="#000000">AppModule</text>
</g>
<!-- AppComponent&#45;&gt;AppModule -->
<g id="edge1" class="edge">
<title>AppComponent&#45;&gt;AppModule</title>
<path fill="none" stroke="#000000" d="M1482,-122.2921C1482,-144.2057 1482,-178 1482,-178 1482,-178 1036.03,-178 1036.03,-178"/>
<polygon fill="#000000" stroke="#000000" points="1036.03,-174.5001 1026.03,-178 1036.03,-181.5001 1036.03,-174.5001"/>
</g>
<!-- AppComponent  -->
<g id="node6" class="node">
<title>AppComponent </title>
<polygon fill="#80b1d3" stroke="#000000" points="1038.439,-252 929.561,-252 929.561,-216 1038.439,-216 1038.439,-252"/>
<text text-anchor="middle" x="984" y="-229.8" font-family="Times,serif" font-size="14.00" fill="#000000">AppComponent </text>
</g>
<!-- AppModule&#45;&gt;AppComponent  -->
<g id="edge5" class="edge">
<title>AppModule&#45;&gt;AppComponent </title>
<path fill="none" stroke="#000000" stroke-dasharray="1,5" d="M984,-187.1061C984,-187.1061 984,-205.991 984,-205.991"/>
<polygon fill="#000000" stroke="#000000" points="980.5001,-205.9909 984,-215.991 987.5001,-205.991 980.5001,-205.9909"/>
</g>
<!-- BrowserModule -->
<g id="node3" class="node">
<title>BrowserModule</title>
<polygon fill="#8dd3c7" stroke="#000000" points="1405.4734,-122 1402.4734,-126 1381.4734,-126 1378.4734,-122 1298.5266,-122 1298.5266,-86 1405.4734,-86 1405.4734,-122"/>
<text text-anchor="middle" x="1352" y="-99.8" font-family="Times,serif" font-size="14.00" fill="#000000">BrowserModule</text>
</g>
<!-- BrowserModule&#45;&gt;AppModule -->
<g id="edge2" class="edge">
<title>BrowserModule&#45;&gt;AppModule</title>
<path fill="none" stroke="#000000" d="M1352,-122.1061C1352,-141.3391 1352,-169 1352,-169 1352,-169 1035.856,-169 1035.856,-169"/>
<polygon fill="#000000" stroke="#000000" points="1035.856,-165.5001 1025.856,-169 1035.856,-172.5001 1035.856,-165.5001"/>
</g>
<!-- IonicModule.forRoot() -->
<g id="node4" class="node">
<title>IonicModule.forRoot()</title>
<polygon fill="#8dd3c7" stroke="#000000" points="1280.1855,-122 1277.1855,-126 1256.1855,-126 1253.1855,-122 1135.8145,-122 1135.8145,-86 1280.1855,-86 1280.1855,-122"/>
<text text-anchor="middle" x="1208" y="-99.8" font-family="Times,serif" font-size="14.00" fill="#000000">IonicModule.forRoot()</text>
</g>
<!-- IonicModule.forRoot()&#45;&gt;AppModule -->
<g id="edge3" class="edge">
<title>IonicModule.forRoot()&#45;&gt;AppModule</title>
<path fill="none" stroke="#000000" d="M1208,-122.027C1208,-138.3976 1208,-160 1208,-160 1208,-160 1035.8699,-160 1035.8699,-160"/>
<polygon fill="#000000" stroke="#000000" points="1035.87,-156.5001 1025.8699,-160 1035.8699,-163.5001 1035.87,-156.5001"/>
</g>
<!-- AppRoutingModule -->
<g id="node5" class="node">
<title>AppRoutingModule</title>
<polygon fill="#8dd3c7" stroke="#000000" points="1117.2744,-122 1114.2744,-126 1093.2744,-126 1090.2744,-122 988.7256,-122 988.7256,-86 1117.2744,-86 1117.2744,-122"/>
<text text-anchor="middle" x="1053" y="-99.8" font-family="Times,serif" font-size="14.00" fill="#000000">AppRoutingModule</text>
</g>
<!-- AppRoutingModule&#45;&gt;AppModule -->
<g id="edge4" class="edge">
<title>AppRoutingModule&#45;&gt;AppModule</title>
<path fill="none" stroke="#000000" d="M1007.2206,-122.1061C1007.2206,-122.1061 1007.2206,-140.991 1007.2206,-140.991"/>
<polygon fill="#000000" stroke="#000000" points="1003.7206,-140.9909 1007.2206,-150.991 1010.7206,-140.991 1003.7206,-140.9909"/>
</g>
<!-- StatusBar -->
<g id="node7" class="node">
<title>StatusBar</title>
<ellipse fill="#fdb462" stroke="#000000" cx="916" cy="-104" rx="48.6694" ry="18"/>
<text text-anchor="middle" x="916" y="-99.8" font-family="Times,serif" font-size="14.00" fill="#000000">StatusBar</text>
</g>
<!-- StatusBar&#45;&gt;AppModule -->
<g id="edge6" class="edge">
<title>StatusBar&#45;&gt;AppModule</title>
<path fill="none" stroke="#000000" d="M953.3782,-115.6207C953.3782,-115.6207 953.3782,-140.8534 953.3782,-140.8534"/>
<polygon fill="#000000" stroke="#000000" points="949.8783,-140.8533 953.3782,-150.8534 956.8783,-140.8534 949.8783,-140.8533"/>
</g>
<!-- SplashScreen -->
<g id="node8" class="node">
<title>SplashScreen</title>
<ellipse fill="#fdb462" stroke="#000000" cx="786" cy="-104" rx="63.1189" ry="18"/>
<text text-anchor="middle" x="786" y="-99.8" font-family="Times,serif" font-size="14.00" fill="#000000">SplashScreen</text>
</g>
<!-- SplashScreen&#45;&gt;AppModule -->
<g id="edge7" class="edge">
<title>SplashScreen&#45;&gt;AppModule</title>
<path fill="none" stroke="#000000" d="M786,-122.027C786,-138.3976 786,-160 786,-160 786,-160 932.0093,-160 932.0093,-160"/>
<polygon fill="#000000" stroke="#000000" points="932.0093,-163.5001 942.0093,-160 932.0093,-156.5001 932.0093,-163.5001"/>
</g>
<!-- BarcodeScanner -->
<g id="node9" class="node">
<title>BarcodeScanner</title>
<ellipse fill="#fdb462" stroke="#000000" cx="631" cy="-104" rx="74.1181" ry="18"/>
<text text-anchor="middle" x="631" y="-99.8" font-family="Times,serif" font-size="14.00" fill="#000000">BarcodeScanner</text>
</g>
<!-- BarcodeScanner&#45;&gt;AppModule -->
<g id="edge8" class="edge">
<title>BarcodeScanner&#45;&gt;AppModule</title>
<path fill="none" stroke="#000000" d="M631,-122.1061C631,-141.3391 631,-169 631,-169 631,-169 932.1201,-169 932.1201,-169"/>
<polygon fill="#000000" stroke="#000000" points="932.1201,-172.5001 942.1201,-169 932.12,-165.5001 932.1201,-172.5001"/>
</g>
<!-- { provide: RouteReuseStrategy, useClass: IonicRouteStrategy } -->
<g id="node10" class="node">
<title>{ provide: RouteReuseStrategy, useClass: IonicRouteStrategy }</title>
<ellipse fill="#fdb462" stroke="#000000" cx="281" cy="-104" rx="257.2723" ry="18"/>
<text text-anchor="middle" x="281" y="-99.8" font-family="Times,serif" font-size="14.00" fill="#000000">{ provide: RouteReuseStrategy, useClass: IonicRouteStrategy }</text>
</g>
<!-- { provide: RouteReuseStrategy, useClass: IonicRouteStrategy }&#45;&gt;AppModule -->
<g id="edge9" class="edge">
<title>{ provide: RouteReuseStrategy, useClass: IonicRouteStrategy }&#45;&gt;AppModule</title>
<path fill="none" stroke="#000000" d="M281,-122.2921C281,-144.2057 281,-178 281,-178 281,-178 932.1294,-178 932.1294,-178"/>
<polygon fill="#000000" stroke="#000000" points="932.1295,-181.5001 942.1294,-178 932.1294,-174.5001 932.1295,-181.5001"/>
</g>
</g>
</svg>
