<?xml version="1.0" encoding="UTF-8" standalone="no"?>
<!DOCTYPE svg PUBLIC "-//W3C//DTD SVG 1.1//EN"
 "http://www.w3.org/Graphics/SVG/1.1/DTD/svg11.dtd">
<!-- Generated by graphviz version 2.40.1 (20161225.0304)
 -->
<!-- Title: dependencies Pages: 1 -->
<svg width="694pt" height="211pt"
 viewBox="0.00 0.00 694.00 211.00" xmlns="http://www.w3.org/2000/svg" xmlns:xlink="http://www.w3.org/1999/xlink">
<g id="graph0" class="graph" transform="scale(1 1) rotate(0) translate(4 207)">
<title>dependencies</title>
<polygon fill="#ffffff" stroke="transparent" points="-4,4 -4,-207 690,-207 690,4 -4,4"/>
<text text-anchor="start" x="322.0091" y="-42.4" font-family="sans-serif" font-weight="bold" font-size="14.00" fill="#000000">Legend</text>
<polygon fill="#ffffb3" stroke="transparent" points="109,-10 109,-30 129,-30 129,-10 109,-10"/>
<text text-anchor="start" x="132.629" y="-15.4" font-family="sans-serif" font-size="14.00" fill="#000000"> &#160;Declarations</text>
<polygon fill="#8dd3c7" stroke="transparent" points="222,-10 222,-30 242,-30 242,-10 222,-10"/>
<text text-anchor="start" x="245.7251" y="-15.4" font-family="sans-serif" font-size="14.00" fill="#000000"> &#160;Module</text>
<polygon fill="#80b1d3" stroke="transparent" points="308,-10 308,-30 328,-30 328,-10 308,-10"/>
<text text-anchor="start" x="331.7812" y="-15.4" font-family="sans-serif" font-size="14.00" fill="#000000"> &#160;Bootstrap</text>
<polygon fill="#fdb462" stroke="transparent" points="405,-10 405,-30 425,-30 425,-10 405,-10"/>
<text text-anchor="start" x="428.6732" y="-15.4" font-family="sans-serif" font-size="14.00" fill="#000000"> &#160;Providers</text>
<polygon fill="#fb8072" stroke="transparent" points="501,-10 501,-30 521,-30 521,-10 501,-10"/>
<text text-anchor="start" x="524.7258" y="-15.4" font-family="sans-serif" font-size="14.00" fill="#000000"> &#160;Exports</text>
<g id="clust1" class="cluster">
<title>cluster_ScannerPageModule</title>
<polygon fill="none" stroke="#000000" stroke-dasharray="1,5" points="8,-70 8,-195 678,-195 678,-70 8,-70"/>
</g>
<g id="clust2" class="cluster">
<title>cluster_ScannerPageModule_declarations</title>
<polygon fill="none" stroke="#000000" points="566,-78 566,-130 670,-130 670,-78 566,-78"/>
</g>
<g id="clust4" class="cluster">
<title>cluster_ScannerPageModule_imports</title>
<polygon fill="none" stroke="#000000" points="16,-78 16,-130 558,-130 558,-78 16,-78"/>
</g>
<!-- ScannerPage -->
<g id="node1" class="node">
<title>ScannerPage</title>
<polygon fill="#ffffb3" stroke="#000000" points="662.2993,-122 573.7007,-122 573.7007,-86 662.2993,-86 662.2993,-122"/>
<text text-anchor="middle" x="618" y="-99.8" font-family="Times,serif" font-size="14.00" fill="#000000">ScannerPage</text>
</g>
<!-- ScannerPageModule -->
<g id="node2" class="node">
<title>ScannerPageModule</title>
<polygon fill="#8dd3c7" stroke="#000000" points="438.8487,-187 435.8487,-191 414.8487,-191 411.8487,-187 307.1513,-187 307.1513,-151 438.8487,-151 438.8487,-187"/>
<text text-anchor="middle" x="373" y="-164.8" font-family="Times,serif" font-size="14.00" fill="#000000">ScannerPageModule</text>
</g>
<!-- ScannerPage&#45;&gt;ScannerPageModule -->
<g id="edge1" class="edge">
<title>ScannerPage&#45;&gt;ScannerPageModule</title>
<path fill="none" stroke="#000000" d="M618,-122.1061C618,-141.3391 618,-169 618,-169 618,-169 448.9778,-169 448.9778,-169"/>
<polygon fill="#000000" stroke="#000000" points="448.9778,-165.5001 438.9778,-169 448.9778,-172.5001 448.9778,-165.5001"/>
</g>
<!-- CommonModule -->
<g id="node3" class="node">
<title>CommonModule</title>
<polygon fill="#8dd3c7" stroke="#000000" points="549.6681,-122 546.6681,-126 525.6681,-126 522.6681,-122 438.3319,-122 438.3319,-86 549.6681,-86 549.6681,-122"/>
<text text-anchor="middle" x="494" y="-99.8" font-family="Times,serif" font-size="14.00" fill="#000000">CommonModule</text>
</g>
<!-- CommonModule&#45;&gt;ScannerPageModule -->
<g id="edge2" class="edge">
<title>CommonModule&#45;&gt;ScannerPageModule</title>
<path fill="none" stroke="#000000" d="M438.1254,-104C432.8456,-104 429.4152,-104 429.4152,-104 429.4152,-104 429.4152,-140.8939 429.4152,-140.8939"/>
<polygon fill="#000000" stroke="#000000" points="425.9152,-140.8938 429.4152,-150.8939 432.9152,-140.8939 425.9152,-140.8938"/>
</g>
<!-- FormsModule -->
<g id="node4" class="node">
<title>FormsModule</title>
<polygon fill="#8dd3c7" stroke="#000000" points="420.8288,-122 417.8288,-126 396.8288,-126 393.8288,-122 325.1712,-122 325.1712,-86 420.8288,-86 420.8288,-122"/>
<text text-anchor="middle" x="373" y="-99.8" font-family="Times,serif" font-size="14.00" fill="#000000">FormsModule</text>
</g>
<!-- FormsModule&#45;&gt;ScannerPageModule -->
<g id="edge3" class="edge">
<title>FormsModule&#45;&gt;ScannerPageModule</title>
<path fill="none" stroke="#000000" d="M373,-122.1061C373,-122.1061 373,-140.991 373,-140.991"/>
<polygon fill="#000000" stroke="#000000" points="369.5001,-140.9909 373,-150.991 376.5001,-140.991 369.5001,-140.9909"/>
</g>
<!-- IonicModule -->
<g id="node5" class="node">
<title>IonicModule</title>
<polygon fill="#8dd3c7" stroke="#000000" points="307.3162,-122 304.3162,-126 283.3162,-126 280.3162,-122 218.6838,-122 218.6838,-86 307.3162,-86 307.3162,-122"/>
<text text-anchor="middle" x="263" y="-99.8" font-family="Times,serif" font-size="14.00" fill="#000000">IonicModule</text>
</g>
<!-- IonicModule&#45;&gt;ScannerPageModule -->
<g id="edge4" class="edge">
<title>IonicModule&#45;&gt;ScannerPageModule</title>
<path fill="none" stroke="#000000" d="M307.4542,-104C312.7077,-104 316.2469,-104 316.2469,-104 316.2469,-104 316.2469,-140.8939 316.2469,-140.8939"/>
<polygon fill="#000000" stroke="#000000" points="312.7469,-140.8938 316.2469,-150.8939 319.7469,-140.8939 312.7469,-140.8938"/>
</g>
<!-- ScannerPageRoutingModule -->
<g id="node6" class="node">
<title>ScannerPageRoutingModule</title>
<polygon fill="#8dd3c7" stroke="#000000" points="200.4664,-122 197.4664,-126 176.4664,-126 173.4664,-122 23.5336,-122 23.5336,-86 200.4664,-86 200.4664,-122"/>
<text text-anchor="middle" x="112" y="-99.8" font-family="Times,serif" font-size="14.00" fill="#000000">ScannerPageRoutingModule</text>
</g>
<!-- ScannerPageRoutingModule&#45;&gt;ScannerPageModule -->
<g id="edge5" class="edge">
<title>ScannerPageRoutingModule&#45;&gt;ScannerPageModule</title>
<path fill="none" stroke="#000000" d="M112,-122.1061C112,-141.3391 112,-169 112,-169 112,-169 297.1387,-169 297.1387,-169"/>
<polygon fill="#000000" stroke="#000000" points="297.1387,-172.5001 307.1387,-169 297.1386,-165.5001 297.1387,-172.5001"/>
</g>
</g>
</svg>
