<?xml version="1.0" encoding="UTF-8" standalone="no"?>
<!DOCTYPE svg PUBLIC "-//W3C//DTD SVG 1.1//EN"
 "http://www.w3.org/Graphics/SVG/1.1/DTD/svg11.dtd">
<!-- Generated by graphviz version 2.40.1 (20161225.0304)
 -->
<!-- Title: dependencies Pages: 1 -->
<svg width="669pt" height="211pt"
 viewBox="0.00 0.00 669.00 211.00" xmlns="http://www.w3.org/2000/svg" xmlns:xlink="http://www.w3.org/1999/xlink">
<g id="graph0" class="graph" transform="scale(1 1) rotate(0) translate(4 207)">
<title>dependencies</title>
<polygon fill="#ffffff" stroke="transparent" points="-4,4 -4,-207 665,-207 665,4 -4,4"/>
<text text-anchor="start" x="309.5091" y="-42.4" font-family="sans-serif" font-weight="bold" font-size="14.00" fill="#000000">Legend</text>
<polygon fill="#ffffb3" stroke="transparent" points="96.5,-10 96.5,-30 116.5,-30 116.5,-10 96.5,-10"/>
<text text-anchor="start" x="120.129" y="-15.4" font-family="sans-serif" font-size="14.00" fill="#000000"> &#160;Declarations</text>
<polygon fill="#8dd3c7" stroke="transparent" points="209.5,-10 209.5,-30 229.5,-30 229.5,-10 209.5,-10"/>
<text text-anchor="start" x="233.2251" y="-15.4" font-family="sans-serif" font-size="14.00" fill="#000000"> &#160;Module</text>
<polygon fill="#80b1d3" stroke="transparent" points="295.5,-10 295.5,-30 315.5,-30 315.5,-10 295.5,-10"/>
<text text-anchor="start" x="319.2812" y="-15.4" font-family="sans-serif" font-size="14.00" fill="#000000"> &#160;Bootstrap</text>
<polygon fill="#fdb462" stroke="transparent" points="392.5,-10 392.5,-30 412.5,-30 412.5,-10 392.5,-10"/>
<text text-anchor="start" x="416.1732" y="-15.4" font-family="sans-serif" font-size="14.00" fill="#000000"> &#160;Providers</text>
<polygon fill="#fb8072" stroke="transparent" points="488.5,-10 488.5,-30 508.5,-30 508.5,-10 488.5,-10"/>
<text text-anchor="start" x="512.2258" y="-15.4" font-family="sans-serif" font-size="14.00" fill="#000000"> &#160;Exports</text>
<g id="clust1" class="cluster">
<title>cluster_MenuPageModule</title>
<polygon fill="none" stroke="#000000" stroke-dasharray="1,5" points="8,-70 8,-195 653,-195 653,-70 8,-70"/>
</g>
<g id="clust2" class="cluster">
<title>cluster_MenuPageModule_declarations</title>
<polygon fill="none" stroke="#000000" points="553,-78 553,-130 645,-130 645,-78 553,-78"/>
</g>
<g id="clust4" class="cluster">
<title>cluster_MenuPageModule_imports</title>
<polygon fill="none" stroke="#000000" points="16,-78 16,-130 545,-130 545,-78 16,-78"/>
</g>
<!-- MenuPage -->
<g id="node1" class="node">
<title>MenuPage</title>
<polygon fill="#ffffb3" stroke="#000000" points="636.8711,-122 561.1289,-122 561.1289,-86 636.8711,-86 636.8711,-122"/>
<text text-anchor="middle" x="599" y="-99.8" font-family="Times,serif" font-size="14.00" fill="#000000">MenuPage</text>
</g>
<!-- MenuPageModule -->
<g id="node2" class="node">
<title>MenuPageModule</title>
<polygon fill="#8dd3c7" stroke="#000000" points="419.9215,-187 416.9215,-191 395.9215,-191 392.9215,-187 300.0785,-187 300.0785,-151 419.9215,-151 419.9215,-187"/>
<text text-anchor="middle" x="360" y="-164.8" font-family="Times,serif" font-size="14.00" fill="#000000">MenuPageModule</text>
</g>
<!-- MenuPage&#45;&gt;MenuPageModule -->
<g id="edge1" class="edge">
<title>MenuPage&#45;&gt;MenuPageModule</title>
<path fill="none" stroke="#000000" d="M599,-122.1061C599,-141.3391 599,-169 599,-169 599,-169 430.0013,-169 430.0013,-169"/>
<polygon fill="#000000" stroke="#000000" points="430.0013,-165.5001 420.0013,-169 430.0013,-172.5001 430.0013,-165.5001"/>
</g>
<!-- CommonModule -->
<g id="node3" class="node">
<title>CommonModule</title>
<polygon fill="#8dd3c7" stroke="#000000" points="536.6681,-122 533.6681,-126 512.6681,-126 509.6681,-122 425.3319,-122 425.3319,-86 536.6681,-86 536.6681,-122"/>
<text text-anchor="middle" x="481" y="-99.8" font-family="Times,serif" font-size="14.00" fill="#000000">CommonModule</text>
</g>
<!-- CommonModule&#45;&gt;MenuPageModule -->
<g id="edge2" class="edge">
<title>CommonModule&#45;&gt;MenuPageModule</title>
<path fill="none" stroke="#000000" d="M425.1059,-104C418.298,-104 413.6873,-104 413.6873,-104 413.6873,-104 413.6873,-140.8939 413.6873,-140.8939"/>
<polygon fill="#000000" stroke="#000000" points="410.1873,-140.8938 413.6873,-150.8939 417.1873,-140.8939 410.1873,-140.8938"/>
</g>
<!-- FormsModule -->
<g id="node4" class="node">
<title>FormsModule</title>
<polygon fill="#8dd3c7" stroke="#000000" points="407.8288,-122 404.8288,-126 383.8288,-126 380.8288,-122 312.1712,-122 312.1712,-86 407.8288,-86 407.8288,-122"/>
<text text-anchor="middle" x="360" y="-99.8" font-family="Times,serif" font-size="14.00" fill="#000000">FormsModule</text>
</g>
<!-- FormsModule&#45;&gt;MenuPageModule -->
<g id="edge3" class="edge">
<title>FormsModule&#45;&gt;MenuPageModule</title>
<path fill="none" stroke="#000000" d="M360,-122.1061C360,-122.1061 360,-140.991 360,-140.991"/>
<polygon fill="#000000" stroke="#000000" points="356.5001,-140.9909 360,-150.991 363.5001,-140.991 356.5001,-140.9909"/>
</g>
<!-- IonicModule -->
<g id="node5" class="node">
<title>IonicModule</title>
<polygon fill="#8dd3c7" stroke="#000000" points="294.3162,-122 291.3162,-126 270.3162,-126 267.3162,-122 205.6838,-122 205.6838,-86 294.3162,-86 294.3162,-122"/>
<text text-anchor="middle" x="250" y="-99.8" font-family="Times,serif" font-size="14.00" fill="#000000">IonicModule</text>
</g>
<!-- IonicModule&#45;&gt;MenuPageModule -->
<g id="edge4" class="edge">
<title>IonicModule&#45;&gt;MenuPageModule</title>
<path fill="none" stroke="#000000" d="M294.3703,-104C301.3496,-104 306.3128,-104 306.3128,-104 306.3128,-104 306.3128,-140.8939 306.3128,-140.8939"/>
<polygon fill="#000000" stroke="#000000" points="302.8128,-140.8938 306.3128,-150.8939 309.8128,-140.8939 302.8128,-140.8938"/>
</g>
<!-- MenuPageRoutingModule -->
<g id="node6" class="node">
<title>MenuPageRoutingModule</title>
<polygon fill="#8dd3c7" stroke="#000000" points="188.0392,-122 185.0392,-126 164.0392,-126 161.0392,-122 23.9608,-122 23.9608,-86 188.0392,-86 188.0392,-122"/>
<text text-anchor="middle" x="106" y="-99.8" font-family="Times,serif" font-size="14.00" fill="#000000">MenuPageRoutingModule</text>
</g>
<!-- MenuPageRoutingModule&#45;&gt;MenuPageModule -->
<g id="edge5" class="edge">
<title>MenuPageRoutingModule&#45;&gt;MenuPageModule</title>
<path fill="none" stroke="#000000" d="M106,-122.1061C106,-141.3391 106,-169 106,-169 106,-169 290.1272,-169 290.1272,-169"/>
<polygon fill="#000000" stroke="#000000" points="290.1272,-172.5001 300.1272,-169 290.1271,-165.5001 290.1272,-172.5001"/>
</g>
</g>
</svg>
