<?xml version="1.0" encoding="UTF-8" standalone="no"?>
<!DOCTYPE svg PUBLIC "-//W3C//DTD SVG 1.1//EN"
 "http://www.w3.org/Graphics/SVG/1.1/DTD/svg11.dtd">
<!-- Generated by graphviz version 2.40.1 (20161225.0304)
 -->
<!-- Title: dependencies Pages: 1 -->
<svg width="671pt" height="211pt"
 viewBox="0.00 0.00 671.00 211.00" xmlns="http://www.w3.org/2000/svg" xmlns:xlink="http://www.w3.org/1999/xlink">
<g id="graph0" class="graph" transform="scale(1 1) rotate(0) translate(4 207)">
<title>dependencies</title>
<polygon fill="#ffffff" stroke="transparent" points="-4,4 -4,-207 667,-207 667,4 -4,4"/>
<text text-anchor="start" x="310.5091" y="-42.4" font-family="sans-serif" font-weight="bold" font-size="14.00" fill="#000000">Legend</text>
<polygon fill="#ffffb3" stroke="transparent" points="97.5,-10 97.5,-30 117.5,-30 117.5,-10 97.5,-10"/>
<text text-anchor="start" x="121.129" y="-15.4" font-family="sans-serif" font-size="14.00" fill="#000000"> &#160;Declarations</text>
<polygon fill="#8dd3c7" stroke="transparent" points="210.5,-10 210.5,-30 230.5,-30 230.5,-10 210.5,-10"/>
<text text-anchor="start" x="234.2251" y="-15.4" font-family="sans-serif" font-size="14.00" fill="#000000"> &#160;Module</text>
<polygon fill="#80b1d3" stroke="transparent" points="296.5,-10 296.5,-30 316.5,-30 316.5,-10 296.5,-10"/>
<text text-anchor="start" x="320.2812" y="-15.4" font-family="sans-serif" font-size="14.00" fill="#000000"> &#160;Bootstrap</text>
<polygon fill="#fdb462" stroke="transparent" points="393.5,-10 393.5,-30 413.5,-30 413.5,-10 393.5,-10"/>
<text text-anchor="start" x="417.1732" y="-15.4" font-family="sans-serif" font-size="14.00" fill="#000000"> &#160;Providers</text>
<polygon fill="#fb8072" stroke="transparent" points="489.5,-10 489.5,-30 509.5,-30 509.5,-10 489.5,-10"/>
<text text-anchor="start" x="513.2258" y="-15.4" font-family="sans-serif" font-size="14.00" fill="#000000"> &#160;Exports</text>
<g id="clust1" class="cluster">
<title>cluster_BlankPageModule</title>
<polygon fill="none" stroke="#000000" stroke-dasharray="1,5" points="8,-70 8,-195 655,-195 655,-70 8,-70"/>
</g>
<g id="clust2" class="cluster">
<title>cluster_BlankPageModule_declarations</title>
<polygon fill="none" stroke="#000000" points="555,-78 555,-130 647,-130 647,-78 555,-78"/>
</g>
<g id="clust4" class="cluster">
<title>cluster_BlankPageModule_imports</title>
<polygon fill="none" stroke="#000000" points="16,-78 16,-130 547,-130 547,-78 16,-78"/>
</g>
<!-- BlankPage -->
<g id="node1" class="node">
<title>BlankPage</title>
<polygon fill="#ffffb3" stroke="#000000" points="639.1544,-122 562.8456,-122 562.8456,-86 639.1544,-86 639.1544,-122"/>
<text text-anchor="middle" x="601" y="-99.8" font-family="Times,serif" font-size="14.00" fill="#000000">BlankPage</text>
</g>
<!-- BlankPageModule -->
<g id="node2" class="node">
<title>BlankPageModule</title>
<polygon fill="#8dd3c7" stroke="#000000" points="422.2036,-187 419.2036,-191 398.2036,-191 395.2036,-187 301.7964,-187 301.7964,-151 422.2036,-151 422.2036,-187"/>
<text text-anchor="middle" x="362" y="-164.8" font-family="Times,serif" font-size="14.00" fill="#000000">BlankPageModule</text>
</g>
<!-- BlankPage&#45;&gt;BlankPageModule -->
<g id="edge1" class="edge">
<title>BlankPage&#45;&gt;BlankPageModule</title>
<path fill="none" stroke="#000000" d="M601,-122.1061C601,-141.3391 601,-169 601,-169 601,-169 432.3098,-169 432.3098,-169"/>
<polygon fill="#000000" stroke="#000000" points="432.3098,-165.5001 422.3098,-169 432.3098,-172.5001 432.3098,-165.5001"/>
</g>
<!-- CommonModule -->
<g id="node3" class="node">
<title>CommonModule</title>
<polygon fill="#8dd3c7" stroke="#000000" points="538.6681,-122 535.6681,-126 514.6681,-126 511.6681,-122 427.3319,-122 427.3319,-86 538.6681,-86 538.6681,-122"/>
<text text-anchor="middle" x="483" y="-99.8" font-family="Times,serif" font-size="14.00" fill="#000000">CommonModule</text>
</g>
<!-- CommonModule&#45;&gt;BlankPageModule -->
<g id="edge2" class="edge">
<title>CommonModule&#45;&gt;BlankPageModule</title>
<path fill="none" stroke="#000000" d="M427.2684,-104C420.4802,-104 415.8829,-104 415.8829,-104 415.8829,-104 415.8829,-140.8939 415.8829,-140.8939"/>
<polygon fill="#000000" stroke="#000000" points="412.383,-140.8938 415.8829,-150.8939 419.383,-140.8939 412.383,-140.8938"/>
</g>
<!-- FormsModule -->
<g id="node4" class="node">
<title>FormsModule</title>
<polygon fill="#8dd3c7" stroke="#000000" points="409.8288,-122 406.8288,-126 385.8288,-126 382.8288,-122 314.1712,-122 314.1712,-86 409.8288,-86 409.8288,-122"/>
<text text-anchor="middle" x="362" y="-99.8" font-family="Times,serif" font-size="14.00" fill="#000000">FormsModule</text>
</g>
<!-- FormsModule&#45;&gt;BlankPageModule -->
<g id="edge3" class="edge">
<title>FormsModule&#45;&gt;BlankPageModule</title>
<path fill="none" stroke="#000000" d="M362,-122.1061C362,-122.1061 362,-140.991 362,-140.991"/>
<polygon fill="#000000" stroke="#000000" points="358.5001,-140.9909 362,-150.991 365.5001,-140.991 358.5001,-140.9909"/>
</g>
<!-- IonicModule -->
<g id="node5" class="node">
<title>IonicModule</title>
<polygon fill="#8dd3c7" stroke="#000000" points="296.3162,-122 293.3162,-126 272.3162,-126 269.3162,-122 207.6838,-122 207.6838,-86 296.3162,-86 296.3162,-122"/>
<text text-anchor="middle" x="252" y="-99.8" font-family="Times,serif" font-size="14.00" fill="#000000">IonicModule</text>
</g>
<!-- IonicModule&#45;&gt;BlankPageModule -->
<g id="edge4" class="edge">
<title>IonicModule&#45;&gt;BlankPageModule</title>
<path fill="none" stroke="#000000" d="M296.2161,-104C303.1712,-104 308.1171,-104 308.1171,-104 308.1171,-104 308.1171,-140.8939 308.1171,-140.8939"/>
<polygon fill="#000000" stroke="#000000" points="304.6172,-140.8938 308.1171,-150.8939 311.6172,-140.8939 304.6172,-140.8938"/>
</g>
<!-- BlankPageRoutingModule -->
<g id="node6" class="node">
<title>BlankPageRoutingModule</title>
<polygon fill="#8dd3c7" stroke="#000000" points="189.8215,-122 186.8215,-126 165.8215,-126 162.8215,-122 24.1785,-122 24.1785,-86 189.8215,-86 189.8215,-122"/>
<text text-anchor="middle" x="107" y="-99.8" font-family="Times,serif" font-size="14.00" fill="#000000">BlankPageRoutingModule</text>
</g>
<!-- BlankPageRoutingModule&#45;&gt;BlankPageModule -->
<g id="edge5" class="edge">
<title>BlankPageRoutingModule&#45;&gt;BlankPageModule</title>
<path fill="none" stroke="#000000" d="M107,-122.1061C107,-141.3391 107,-169 107,-169 107,-169 291.8915,-169 291.8915,-169"/>
<polygon fill="#000000" stroke="#000000" points="291.8915,-172.5001 301.8915,-169 291.8914,-165.5001 291.8915,-172.5001"/>
</g>
</g>
</svg>
