<?xml version="1.0" encoding="UTF-8" standalone="no"?>
<!DOCTYPE svg PUBLIC "-//W3C//DTD SVG 1.1//EN"
 "http://www.w3.org/Graphics/SVG/1.1/DTD/svg11.dtd">
<!-- Generated by graphviz version 2.40.1 (20161225.0304)
 -->
<!-- Title: dependencies Pages: 1 -->
<svg width="719pt" height="211pt"
 viewBox="0.00 0.00 719.00 211.00" xmlns="http://www.w3.org/2000/svg" xmlns:xlink="http://www.w3.org/1999/xlink">
<g id="graph0" class="graph" transform="scale(1 1) rotate(0) translate(4 207)">
<title>dependencies</title>
<polygon fill="#ffffff" stroke="transparent" points="-4,4 -4,-207 715,-207 715,4 -4,4"/>
<text text-anchor="start" x="334.5091" y="-42.4" font-family="sans-serif" font-weight="bold" font-size="14.00" fill="#000000">Legend</text>
<polygon fill="#ffffb3" stroke="transparent" points="121.5,-10 121.5,-30 141.5,-30 141.5,-10 121.5,-10"/>
<text text-anchor="start" x="145.129" y="-15.4" font-family="sans-serif" font-size="14.00" fill="#000000"> &#160;Declarations</text>
<polygon fill="#8dd3c7" stroke="transparent" points="234.5,-10 234.5,-30 254.5,-30 254.5,-10 234.5,-10"/>
<text text-anchor="start" x="258.2251" y="-15.4" font-family="sans-serif" font-size="14.00" fill="#000000"> &#160;Module</text>
<polygon fill="#80b1d3" stroke="transparent" points="320.5,-10 320.5,-30 340.5,-30 340.5,-10 320.5,-10"/>
<text text-anchor="start" x="344.2812" y="-15.4" font-family="sans-serif" font-size="14.00" fill="#000000"> &#160;Bootstrap</text>
<polygon fill="#fdb462" stroke="transparent" points="417.5,-10 417.5,-30 437.5,-30 437.5,-10 417.5,-10"/>
<text text-anchor="start" x="441.1732" y="-15.4" font-family="sans-serif" font-size="14.00" fill="#000000"> &#160;Providers</text>
<polygon fill="#fb8072" stroke="transparent" points="513.5,-10 513.5,-30 533.5,-30 533.5,-10 513.5,-10"/>
<text text-anchor="start" x="537.2258" y="-15.4" font-family="sans-serif" font-size="14.00" fill="#000000"> &#160;Exports</text>
<g id="clust1" class="cluster">
<title>cluster_DiscoveryPageModule</title>
<polygon fill="none" stroke="#000000" stroke-dasharray="1,5" points="8,-70 8,-195 703,-195 703,-70 8,-70"/>
</g>
<g id="clust2" class="cluster">
<title>cluster_DiscoveryPageModule_declarations</title>
<polygon fill="none" stroke="#000000" points="579,-78 579,-130 695,-130 695,-78 579,-78"/>
</g>
<g id="clust4" class="cluster">
<title>cluster_DiscoveryPageModule_imports</title>
<polygon fill="none" stroke="#000000" points="16,-78 16,-130 571,-130 571,-78 16,-78"/>
</g>
<!-- DiscoveryPage -->
<g id="node1" class="node">
<title>DiscoveryPage</title>
<polygon fill="#ffffb3" stroke="#000000" points="687.2437,-122 586.7563,-122 586.7563,-86 687.2437,-86 687.2437,-122"/>
<text text-anchor="middle" x="637" y="-99.8" font-family="Times,serif" font-size="14.00" fill="#000000">DiscoveryPage</text>
</g>
<!-- DiscoveryPageModule -->
<g id="node2" class="node">
<title>DiscoveryPageModule</title>
<polygon fill="#8dd3c7" stroke="#000000" points="458.2935,-187 455.2935,-191 434.2935,-191 431.2935,-187 313.7065,-187 313.7065,-151 458.2935,-151 458.2935,-187"/>
<text text-anchor="middle" x="386" y="-164.8" font-family="Times,serif" font-size="14.00" fill="#000000">DiscoveryPageModule</text>
</g>
<!-- DiscoveryPage&#45;&gt;DiscoveryPageModule -->
<g id="edge1" class="edge">
<title>DiscoveryPage&#45;&gt;DiscoveryPageModule</title>
<path fill="none" stroke="#000000" d="M637,-122.1061C637,-141.3391 637,-169 637,-169 637,-169 468.2629,-169 468.2629,-169"/>
<polygon fill="#000000" stroke="#000000" points="468.2629,-165.5001 458.2629,-169 468.2628,-172.5001 468.2629,-165.5001"/>
</g>
<!-- CommonModule -->
<g id="node3" class="node">
<title>CommonModule</title>
<polygon fill="#8dd3c7" stroke="#000000" points="562.6681,-122 559.6681,-126 538.6681,-126 535.6681,-122 451.3319,-122 451.3319,-86 562.6681,-86 562.6681,-122"/>
<text text-anchor="middle" x="507" y="-99.8" font-family="Times,serif" font-size="14.00" fill="#000000">CommonModule</text>
</g>
<!-- CommonModule&#45;&gt;DiscoveryPageModule -->
<g id="edge2" class="edge">
<title>CommonModule&#45;&gt;DiscoveryPageModule</title>
<path fill="none" stroke="#000000" d="M451.1254,-104C445.8456,-104 442.4152,-104 442.4152,-104 442.4152,-104 442.4152,-140.8939 442.4152,-140.8939"/>
<polygon fill="#000000" stroke="#000000" points="438.9152,-140.8938 442.4152,-150.8939 445.9152,-140.8939 438.9152,-140.8938"/>
</g>
<!-- FormsModule -->
<g id="node4" class="node">
<title>FormsModule</title>
<polygon fill="#8dd3c7" stroke="#000000" points="433.8288,-122 430.8288,-126 409.8288,-126 406.8288,-122 338.1712,-122 338.1712,-86 433.8288,-86 433.8288,-122"/>
<text text-anchor="middle" x="386" y="-99.8" font-family="Times,serif" font-size="14.00" fill="#000000">FormsModule</text>
</g>
<!-- FormsModule&#45;&gt;DiscoveryPageModule -->
<g id="edge3" class="edge">
<title>FormsModule&#45;&gt;DiscoveryPageModule</title>
<path fill="none" stroke="#000000" d="M386,-122.1061C386,-122.1061 386,-140.991 386,-140.991"/>
<polygon fill="#000000" stroke="#000000" points="382.5001,-140.9909 386,-150.991 389.5001,-140.991 382.5001,-140.9909"/>
</g>
<!-- IonicModule -->
<g id="node5" class="node">
<title>IonicModule</title>
<polygon fill="#8dd3c7" stroke="#000000" points="320.3162,-122 317.3162,-126 296.3162,-126 293.3162,-122 231.6838,-122 231.6838,-86 320.3162,-86 320.3162,-122"/>
<text text-anchor="middle" x="276" y="-99.8" font-family="Times,serif" font-size="14.00" fill="#000000">IonicModule</text>
</g>
<!-- IonicModule&#45;&gt;DiscoveryPageModule -->
<g id="edge4" class="edge">
<title>IonicModule&#45;&gt;DiscoveryPageModule</title>
<path fill="none" stroke="#000000" d="M320.4542,-104C325.7077,-104 329.2469,-104 329.2469,-104 329.2469,-104 329.2469,-140.8939 329.2469,-140.8939"/>
<polygon fill="#000000" stroke="#000000" points="325.7469,-140.8938 329.2469,-150.8939 332.7469,-140.8939 325.7469,-140.8938"/>
</g>
<!-- DiscoveryPageRoutingModule -->
<g id="node6" class="node">
<title>DiscoveryPageRoutingModule</title>
<polygon fill="#8dd3c7" stroke="#000000" points="213.9114,-122 210.9114,-126 189.9114,-126 186.9114,-122 24.0886,-122 24.0886,-86 213.9114,-86 213.9114,-122"/>
<text text-anchor="middle" x="119" y="-99.8" font-family="Times,serif" font-size="14.00" fill="#000000">DiscoveryPageRoutingModule</text>
</g>
<!-- DiscoveryPageRoutingModule&#45;&gt;DiscoveryPageModule -->
<g id="edge5" class="edge">
<title>DiscoveryPageRoutingModule&#45;&gt;DiscoveryPageModule</title>
<path fill="none" stroke="#000000" d="M119,-122.1061C119,-141.3391 119,-169 119,-169 119,-169 303.746,-169 303.746,-169"/>
<polygon fill="#000000" stroke="#000000" points="303.746,-172.5001 313.746,-169 303.7459,-165.5001 303.746,-172.5001"/>
</g>
</g>
</svg>
